<svg width="44" height="33" viewBox="0 0 44 33" fill="none" xmlns="http://www.w3.org/2000/svg">
<path fill-rule="evenodd" clip-rule="evenodd" d="M0 0L27.2381 33C36.4954 33 44 25.6127 44 16.5C44 7.3873 36.4954 0 27.2381 0H0ZM29.1191 28.7374C35.1698 27.8438 39.8095 22.7053 39.8095 16.5C39.8095 9.66548 34.1811 4.125 27.2381 4.125H20.3412C23.3272 7.40906 25.1429 11.7458 25.1429 16.5C25.1429 18.65 24.7708 20.7169 24.0862 22.6399L29.1191 28.7374ZM20.7914 18.6481C20.8974 17.9476 20.9524 17.2303 20.9524 16.5C20.9524 11.2482 18.1037 6.65135 13.8445 4.125H8.80407L20.7914 18.6481Z" fill="url(#paint0_linear_15_2)"/>
<defs>
<linearGradient id="paint0_linear_15_2" x1="-1.22234e-06" y1="33" x2="17.8497" y2="-10.685" gradientUnits="userSpaceOnUse">
<stop stop-color="#059669"/>
<stop offset="1" stop-color="#10B981"/>
</linearGradient>
</defs>
</svg>
